<?xml version="1.0" encoding="UTF-8" standalone="no"?>
<!-- Created with Inkscape (http://www.inkscape.org/) -->

<svg
   xmlns:dc="http://purl.org/dc/elements/1.1/"
   xmlns:cc="http://creativecommons.org/ns#"
   xmlns:rdf="http://www.w3.org/1999/02/22-rdf-syntax-ns#"
   xmlns:svg="http://www.w3.org/2000/svg"
   xmlns="http://www.w3.org/2000/svg"
   version="1.1"
   width="592.18097"
   height="664.75781"
   id="svg2">
  <defs
     id="defs4">
    <filter
       x="-0.25992936"
       y="-0.25992936"
       width="1.5198587"
       height="1.5198587"
       color-interpolation-filters="sRGB"
       id="filter3829">
      <feGaussianBlur
         id="feGaussianBlur3831"
         stdDeviation="96.275048" />
    </filter>
    <filter
       x="-0.23999999"
       y="-0.23999999"
       width="1.48"
       height="1.48"
       color-interpolation-filters="sRGB"
       id="filter3856">
      <feGaussianBlur
         id="feGaussianBlur3858"
         stdDeviation="88.893427" />
    </filter>
  </defs>
  <metadata
     id="metadata7">
    <rdf:RDF>
      <cc:Work
         rdf:about="">
        <dc:format>image/svg+xml</dc:format>
        <dc:type
           rdf:resource="http://purl.org/dc/dcmitype/StillImage" />
        <dc:title></dc:title>
      </cc:Work>
    </rdf:RDF>
  </metadata>
  <g
     transform="translate(-1841.3922,-530.07462)"
     id="layer1">
    <path
       d="m 2122.7792,1193.7221 c -8.409,-2.122 -3.7268,0.4854 -135.776,-75.6093 -65.7754,-37.9037 -121.9762,-71.1367 -124.8908,-73.851 -8.0206,-7.4697 -13.923,-16.7842 -17.6543,-27.8604 -3.1603,-9.3812 -3.3359,-12.6154 -2.878,-53.02148 l 0.4876,-43.03084 5.98,-12.0928 c 3.9973,-8.08354 8.4611,-14.27928 13.4639,-18.68771 4.125,-3.63494 62.2268,-38.13011 129.4516,-76.85571 67.0821,-38.64345 123.2405,-71.02359 124.7963,-71.95589 2.4551,-1.47117 2.769,-3.69318 2.376,-16.81924 l -0.4528,-15.1241 -8.2161,-2.88975 c -32.8495,-11.5537 -56.283,-39.38545 -61.0394,-72.4959 -8.9704,-62.4449 48.2762,-115.35114 109.257,-100.9733 45.4217,10.70936 75.4869,54.79954 68.8539,100.9733 -4.7776,33.25822 -31.0765,63.93443 -62.8358,73.29435 l -6.4197,1.892 -0.4528,15.22375 c -0.3932,13.22222 -0.081,15.44634 2.376,16.91668 1.5558,0.93111 57.7142,33.31768 124.7963,71.97015 67.0822,38.65249 125.3354,73.23855 129.4516,76.85791 5.0133,4.40815 9.4582,10.57296 13.464,18.67346 l 5.9799,12.0928 0.4876,43.03084 c 0.4579,40.40608 0.2824,43.64028 -2.8779,53.02148 -3.7305,11.0737 -9.6309,20.3863 -17.6544,27.8638 -5.2445,4.8877 -239.5871,140.8273 -252.9844,146.7536 -8.0242,3.5495 -27.9739,5.0035 -37.0893,2.7033 z m 48.7593,-230.28698 c 25.4903,-6.8332 49.1407,-23.78653 58.7776,-42.1334 4.1027,-7.81077 4.567,-10.22462 4.567,-23.74268 0,-13.51806 -0.4643,-15.93191 -4.567,-23.74268 -6.1251,-11.66108 -19.9996,-24.9037 -33.5551,-32.02693 -11.733,-6.16549 -34.2621,-13.16319 -37.8931,-11.76985 -1.653,0.63433 -2.2695,6.50819 -2.6604,25.3477 -0.4846,23.3495 -0.6904,24.71504 -4.3058,28.55894 -8.1937,8.71157 -20.6444,8.71157 -28.8381,0 -3.6153,-3.8439 -3.8212,-5.20944 -4.3057,-28.55894 -0.391,-18.83951 -1.0075,-24.71337 -2.6605,-25.3477 -3.631,-1.39334 -26.1601,5.60436 -37.8931,11.76985 -13.5555,7.12323 -27.43,20.36585 -33.5551,32.02693 -4.1027,7.81077 -4.567,10.22462 -4.567,23.74268 0,13.51806 0.4643,15.93191 4.567,23.74268 10.9645,20.87434 35.5512,37.1583 65.9056,43.6497 13.3347,2.8517 47.895,1.9924 60.9837,-1.5163 z m -205.8537,-45.09353 c 9.2742,-4.21268 14.9824,-11.63127 14.9824,-19.47156 0,-13.34683 -12.8351,-22.393 -31.6055,-22.2755 -33.6515,0.21067 -43.7358,32.08314 -13.5383,42.78953 7.7185,2.73656 23.005,2.20822 30.1614,-1.04247 z m 158.3339,-299.75327 c 8.4068,-2.32731 20.4529,-14.37339 22.7802,-22.78021 3.968,-14.33333 1.0923,-25.66557 -9.0991,-35.85701 -14.6751,-14.67513 -34.863,-14.67513 -49.5381,0 -14.2877,14.28774 -14.6275,34.28418 -0.8297,48.83448 9.9338,10.47559 22.3104,13.78264 36.6867,9.80274 z"
       id="path3020"
       style="fill:#ffffff;fill-opacity:1" />
  </g>
</svg>
