<?xml version="1.0" encoding="UTF-8" standalone="no"?>
<!-- Created with Inkscape (http://www.inkscape.org/) -->

<svg
   xmlns:dc="http://purl.org/dc/elements/1.1/"
   xmlns:cc="http://creativecommons.org/ns#"
   xmlns:rdf="http://www.w3.org/1999/02/22-rdf-syntax-ns#"
   xmlns:svg="http://www.w3.org/2000/svg"
   xmlns="http://www.w3.org/2000/svg"
   xmlns:sodipodi="http://sodipodi.sourceforge.net/DTD/sodipodi-0.dtd"
   xmlns:inkscape="http://www.inkscape.org/namespaces/inkscape"
   width="65"
   height="65"
   id="svg2"
   version="1.1"
   inkscape:version="0.48.4 r9939"
   sodipodi:docname="Nouveau document 1">
  <defs
     id="defs4" />
  <sodipodi:namedview
     id="base"
     pagecolor="#ffffff"
     bordercolor="#666666"
     borderopacity="1.0"
     inkscape:pageopacity="0.0"
     inkscape:pageshadow="2"
     inkscape:zoom="5.6"
     inkscape:cx="66.101759"
     inkscape:cy="49.04857"
     inkscape:document-units="px"
     inkscape:current-layer="layer1"
     showgrid="false"
     fit-margin-top="0"
     fit-margin-left="0"
     fit-margin-right="0"
     fit-margin-bottom="0"
     inkscape:window-width="1600"
     inkscape:window-height="824"
     inkscape:window-x="0"
     inkscape:window-y="24"
     inkscape:window-maximized="1" />
  <metadata
     id="metadata7">
    <rdf:RDF>
      <cc:Work
         rdf:about="">
        <dc:format>image/svg+xml</dc:format>
        <dc:type
           rdf:resource="http://purl.org/dc/dcmitype/StillImage" />
        <dc:title></dc:title>
      </cc:Work>
    </rdf:RDF>
  </metadata>
  <g
     inkscape:label="Calque 1"
     inkscape:groupmode="layer"
     id="layer1"
     transform="translate(-436.5318,-611.61268)">
    <path
       style="fill:#ffffff"
       d="m 436.82766,672.42315 c 3.92924,-12.02137 7.83929,-24.06089 12.21741,-35.92499 3.01261,-0.47316 6.15471,-0.51252 9.18133,-0.13986 1.15809,1.41236 3.10376,4.55963 -0.3029,3.79903 -2.6506,0.21416 -6.59098,-0.99065 -6.93224,2.74975 -0.99645,3.14248 -2.42957,6.22913 -2.89943,9.49393 1.58035,2.60715 -2.73766,4.73687 -2.78082,7.58859 -0.57082,2.65848 -3.22501,6.67422 -2.04935,8.56328 17.1507,0.27746 34.30932,0.25967 51.46045,0.0128 2.0479,-0.48295 -0.63111,-4.11148 -0.74746,-5.87363 -0.48795,-3.10024 -2.83922,-5.61517 -4.03951,-8.02722 1.53518,-2.75654 -1.01455,-5.75782 -1.489,-8.55034 -0.98873,-2.91072 -1.61941,-7.15652 -5.71407,-5.93385 -1.68939,-0.13901 -6.07418,0.7328 -3.70155,-2.1439 1.07621,-3.18612 5.10792,-1.50889 7.64134,-1.84244 3.91968,-0.79506 3.50909,4.1576 4.87646,6.54948 3.40644,9.86129 6.74464,19.7469 9.93833,29.6793 -5.68918,0.51762 -11.45693,0.24096 -17.17903,0.34677 -15.58038,-0.0465 -31.16724,0.18023 -46.7433,-0.20688 l -0.43292,-0.042 -0.30374,-0.098 0,0 z m 16.19837,-13.21268 c -2.64952,0.29289 -1.46911,-3.43874 -0.50331,-4.14943 2.75811,-0.5786 3.94641,1.5671 2.94217,4.00975 -0.54162,0.74738 -1.6953,0.16352 -2.43886,0.13968 z m 7.37973,-0.65041 c -0.044,-1.0226 -1.59568,-3.65069 0.12702,-3.84472 2.36355,-1.74093 4.65675,1.21297 3.30711,3.24119 -1.045,0.26586 -2.41125,1.25005 -3.43413,0.60353 z m 7.35449,-4.49916 c -2.59632,-2.47406 3.82944,-5.55249 3.92251,-1.55774 1.31944,1.72307 -3.71865,4.36844 -3.92251,1.55774 z m 16.90648,-1.88562 c -3.00971,-0.65328 -0.81606,-6.33726 1.88523,-3.70191 3.01722,0.1447 0.20122,5.5005 -1.88523,3.70191 z m -9.42119,-1.69821 c -2.41425,-2.87416 4.68028,-4.344 4.09589,-1.0363 0.84318,2.51844 -1.98364,2.37484 -3.63432,2.62407 -0.15386,-0.52926 -0.30772,-1.0585 -0.46157,-1.58777 z m -6.43394,-2.8551 c -3.27989,-6.32041 -6.81005,-12.55221 -9.46854,-19.1661 -1.81319,-6.12946 3.79614,-13.11537 10.21913,-12.37156 6.56951,-0.25371 11.77025,7.56433 8.98082,13.53846 -2.73558,6.13914 -5.8764,12.09742 -9.08546,17.9992 l -0.3396,0.2309 -0.30635,-0.2309 z m 3.11358,-16.18996 c 2.55333,-1.34961 3.82841,-4.45417 2.89713,-7.20685 -1.1044,-3.74062 -6.19205,-5.56218 -9.21884,-2.88178 -3.29424,2.25991 -3.20315,7.644 0.22584,9.73549 1.77266,1.20476 4.19868,1.36661 6.09587,0.35314 z"
       id="path2996"
       inkscape:connector-curvature="0" />
  </g>
</svg>
